<svg width="1920" height="1080" viewBox="0 0 1920 1080" fill="none" xmlns="http://www.w3.org/2000/svg">
  <!-- Fondo degradado -->
  <defs>
    <linearGradient id="bgGradient" x1="0%" y1="0%" x2="100%" y2="100%">
      <stop offset="0%" style="stop-color:#f8fafc;stop-opacity:1" />
      <stop offset="50%" style="stop-color:#e2e8f0;stop-opacity:1" />
      <stop offset="100%" style="stop-color:#cbd5e1;stop-opacity:1" />
    </linearGradient>
    
    <pattern id="fashionPattern" x="0" y="0" width="100" height="100" patternUnits="userSpaceOnUse">
      <!-- Elementos decorativos de moda -->
      <circle cx="20" cy="20" r="2" fill="#3b82f6" opacity="0.1"/>
      <circle cx="80" cy="30" r="1.5" fill="#ec4899" opacity="0.1"/>
      <circle cx="50" cy="70" r="1" fill="#10b981" opacity="0.1"/>
      <circle cx="30" cy="80" r="1.5" fill="#f59e0b" opacity="0.1"/>
      <circle cx="70" cy="80" r="1" fill="#8b5cf6" opacity="0.1"/>
    </pattern>
  </defs>
  
  <!-- Fondo principal -->
  <rect width="1920" height="1080" fill="url(#bgGradient)"/>
  
  <!-- Patrón decorativo -->
  <rect width="1920" height="1080" fill="url(#fashionPattern)"/>
  
  <!-- Elementos decorativos grandes -->
  <!-- Círculo decorativo superior izquierdo -->
  <circle cx="200" cy="150" r="80" fill="#3b82f6" opacity="0.05"/>
  <circle cx="200" cy="150" r="60" fill="#3b82f6" opacity="0.08"/>
  <circle cx="200" cy="150" r="40" fill="#3b82f6" opacity="0.1"/>
  
  <!-- Círculo decorativo superior derecho -->
  <circle cx="1720" cy="200" r="100" fill="#ec4899" opacity="0.05"/>
  <circle cx="1720" cy="200" r="70" fill="#ec4899" opacity="0.08"/>
  <circle cx="1720" cy="200" r="40" fill="#ec4899" opacity="0.1"/>
  
  <!-- Círculo decorativo inferior izquierdo -->
  <circle cx="300" cy="900" r="120" fill="#10b981" opacity="0.05"/>
  <circle cx="300" cy="900" r="80" fill="#10b981" opacity="0.08"/>
  <circle cx="300" cy="900" r="50" fill="#10b981" opacity="0.1"/>
  
  <!-- Círculo decorativo inferior derecho -->
  <circle cx="1620" cy="880" r="90" fill="#f59e0b" opacity="0.05"/>
  <circle cx="1620" cy="880" r="60" fill="#f59e0b" opacity="0.08"/>
  <circle cx="1620" cy="880" r="35" fill="#f59e0b" opacity="0.1"/>
  
  <!-- Líneas decorativas -->
  <line x1="0" y1="300" x2="1920" y2="300" stroke="#3b82f6" stroke-width="1" opacity="0.1"/>
  <line x1="0" y1="600" x2="1920" y2="600" stroke="#ec4899" stroke-width="1" opacity="0.1"/>
  <line x1="0" y1="900" x2="1920" y2="900" stroke="#10b981" stroke-width="1" opacity="0.1"/>
  
  <!-- Líneas verticales -->
  <line x1="400" y1="0" x2="400" y2="1080" stroke="#8b5cf6" stroke-width="1" opacity="0.1"/>
  <line x1="800" y1="0" x2="800" y2="1080" stroke="#f59e0b" stroke-width="1" opacity="0.1"/>
  <line x1="1200" y1="0" x2="1200" y2="1080" stroke="#3b82f6" stroke-width="1" opacity="0.1"/>
  <line x1="1600" y1="0" x2="1600" y2="1080" stroke="#ec4899" stroke-width="1" opacity="0.1"/>
  
  <!-- Elementos de moda abstractos -->
  <!-- Silueta de maniquí -->
  <path d="M1500 400 L1500 350 L1520 340 L1540 350 L1540 400 L1530 410 L1510 410 L1500 400 Z" fill="#6b7280" opacity="0.1"/>
  <circle cx="1520" cy="320" r="15" fill="#6b7280" opacity="0.1"/>
  
  <!-- Silueta de ropa colgada -->
  <path d="M200 400 L200 350 L220 340 L240 350 L240 400 L220 410 L200 400 Z" fill="#3b82f6" opacity="0.1"/>
  <line x1="220" y1="350" x2="220" y2="500" stroke="#3b82f6" stroke-width="2" opacity="0.1"/>
  
  <!-- Elementos de textura -->
  <rect x="100" y="100" width="50" height="50" fill="#ec4899" opacity="0.05" transform="rotate(45 125 125)"/>
  <rect x="1700" y="200" width="40" height="40" fill="#10b981" opacity="0.05" transform="rotate(45 1720 220)"/>
  <rect x="300" y="800" width="60" height="60" fill="#f59e0b" opacity="0.05" transform="rotate(45 330 830)"/>
  <rect x="1600" y="700" width="35" height="35" fill="#8b5cf6" opacity="0.05" transform="rotate(45 1617.5 717.5)"/>
</svg>








